<svg width="20" height="22" viewBox="0 0 20 22" fill="none" xmlns="http://www.w3.org/2000/svg">
<path d="M18.4219 5.15625H15.8031C15.4617 2.2568 12.9896 0 10 0C7.01036 0 4.53829 2.2568 4.1969 5.15625H1.57812C1.10349 5.15625 0.71875 5.54099 0.71875 6.01562V21.1406C0.71875 21.6153 1.10349 22 1.57812 22H18.4219C18.8965 22 19.2812 21.6153 19.2812 21.1406V6.01562C19.2812 5.54099 18.8965 5.15625 18.4219 5.15625ZM10 1.71875C12.0403 1.71875 13.7391 3.20783 14.0674 5.15625H5.93262C6.2609 3.20783 7.95967 1.71875 10 1.71875ZM17.5625 20.2812H2.4375V6.875H4.15625V9.45312C4.15625 9.92776 4.54099 10.3125 5.01562 10.3125C5.49026 10.3125 5.875 9.92776 5.875 9.45312V6.875H14.125V9.45312C14.125 9.92776 14.5097 10.3125 14.9844 10.3125C15.459 10.3125 15.8438 9.92776 15.8438 9.45312V6.875H17.5625V20.2812Z" fill="black"/>
</svg>
