<svg width="22" height="20" viewBox="0 0 22 20" fill="none" xmlns="http://www.w3.org/2000/svg">
<path d="M16.1562 0.546875C14.2715 0.546875 12.6335 1.4096 11.4191 3.04173C11.2631 3.25146 11.1237 3.46127 11 3.66482C10.8763 3.46123 10.7369 3.25146 10.5809 3.04173C9.36659 1.4096 7.72849 0.546875 5.84375 0.546875C2.35323 0.546875 0 3.35071 0 6.78817C0 11.2744 4.26388 14.0988 10.4498 19.2539C10.6092 19.3867 10.8046 19.4531 11 19.4531C11.1954 19.4531 11.3908 19.3867 11.5502 19.2539C17.7347 14.1002 22 11.2749 22 6.78817C22 3.35273 19.6488 0.546875 16.1562 0.546875ZM11 17.4768C5.30398 12.7644 1.71875 10.2671 1.71875 6.78817C1.71875 4.54078 3.13569 2.26562 5.84375 2.26562C7.16714 2.26562 8.28704 2.85864 9.17237 4.02825C9.87379 4.95495 10.1653 5.91139 10.1747 5.94268C10.2812 6.3098 10.6176 6.5625 11 6.5625C11.383 6.5625 11.7198 6.30903 11.8258 5.94096C11.8364 5.90422 12.9218 2.26562 16.1562 2.26562C18.8643 2.26562 20.2812 4.54078 20.2812 6.78817C20.2812 10.2704 16.6779 12.7796 11 17.4768Z" fill="black"/>
</svg>
