<svg width="20" height="20" viewBox="0 0 20 20" fill="none" xmlns="http://www.w3.org/2000/svg">
<path d="M18.9007 17.5992L16.3065 15.0142C17.7129 13.2768 18.3989 11.066 18.2232 8.83766C18.0475 6.60934 17.0234 4.5334 15.3622 3.0379C13.7009 1.5424 11.5291 0.741378 9.29467 0.800002C7.0602 0.858626 4.93341 1.77243 3.35286 3.35298C1.77231 4.93353 0.858504 7.06032 0.79988 9.29479C0.741256 11.5293 1.54228 13.701 3.03778 15.3623C4.53328 17.0236 6.60922 18.0476 8.83754 18.2233C11.0659 18.399 13.2767 17.713 15.014 16.3067L17.599 18.9008C17.6843 18.9868 17.7856 19.0549 17.8974 19.1015C18.0091 19.148 18.1289 19.172 18.2499 19.172C18.3709 19.172 18.4907 19.148 18.6024 19.1015C18.7141 19.0549 18.8155 18.9868 18.9007 18.9008C18.9866 18.8156 19.0548 18.7142 19.1014 18.6025C19.1479 18.4908 19.1719 18.371 19.1719 18.25C19.1719 18.129 19.1479 18.0092 19.1014 17.8975C19.0548 17.7858 18.9866 17.6844 18.9007 17.5992ZM2.66655 9.54167C2.66655 8.18192 3.06976 6.85271 3.82519 5.72212C4.58063 4.59154 5.65436 3.71035 6.9106 3.19C8.16684 2.66964 9.54917 2.5335 10.8828 2.79877C12.2164 3.06404 13.4414 3.71882 14.4029 4.68031C15.3644 5.6418 16.0192 6.8668 16.2844 8.20042C16.5497 9.53404 16.4136 10.9164 15.8932 12.1726C15.3729 13.4289 14.4917 14.5026 13.3611 15.258C12.2305 16.0135 10.9013 16.4167 9.54155 16.4167C7.71818 16.4167 5.9695 15.6923 4.68019 14.403C3.39087 13.1137 2.66655 11.365 2.66655 9.54167Z" fill="black"/>
</svg>
